<svg width="303.9600036621094" height="86.14975137657903" viewBox="0 0 370 104.86711286122978" class="css-1j8o68f"><defs id="SvgjsDefs1447"></defs><g id="SvgjsG1448" featurekey="symbolFeature-0" transform="matrix(1.5600622539490743,0,0,1.5600622539490743,-28.08111461991812,-25.554098115194563)" fill="#75fcce"><path xmlns="http://www.w3.org/2000/svg" d="M77.3,54.3h-7.1v-2.8c0-1.9-1.5-3.4-3.4-3.4H54.9c-1.9,0-3.4,1.5-3.4,3.4v2.8H44c-2.6,0-4.8,2.2-4.8,4.8v19.3  c0,2.6,2.2,4.8,4.8,4.8h33.3c2.6,0,4.8-2.2,4.8-4.8V59.1C82.1,56.4,79.9,54.3,77.3,54.3z M53,51.5c0-1.1,0.9-2,2-2h11.8  c1.1,0,2,0.9,2,2v2.8h-1v-1.7c0-1.2-1-2.2-2.2-2.2h-9.2c-1.2,0-2.2,1-2.2,2.2v1.7H53V51.5z M66.3,54.3H55.5v-1.7  c0-0.4,0.4-0.8,0.8-0.8h9.2c0.4,0,0.8,0.4,0.8,0.8V54.3z M80.6,78.4c0,1.9-1.5,3.4-3.4,3.4H44c-1.9,0-3.4-1.5-3.4-3.4V59.1  c0-1.9,1.5-3.4,3.4-3.4h8.2c0,0,0.1,0,0.1,0h17.2c0,0,0.1,0,0.1,0h7.7c1.9,0,3.4,1.5,3.4,3.4V78.4z M46.9,57.2v22.4  c0,0.4-0.3,0.7-0.7,0.7s-0.7-0.3-0.7-0.7V57.2c0-0.4,0.3-0.7,0.7-0.7S46.9,56.8,46.9,57.2z M75.4,57.2v22.4c0,0.4-0.3,0.7-0.7,0.7  c-0.4,0-0.7-0.3-0.7-0.7V57.2c0-0.4,0.3-0.7,0.7-0.7C75.1,56.5,75.4,56.8,75.4,57.2z M70.8,59.6h-9.3c-0.4,0-0.7,0.3-0.7,0.7v4.9  c0,0.4,0.3,0.7,0.7,0.7h9.3c0.4,0,0.7-0.3,0.7-0.7v-4.9C71.5,59.9,71.2,59.6,70.8,59.6z M70.1,64.4h-2.4l0.8-0.7  c0.3-0.3,0.3-0.7,0-1c-0.3-0.3-0.7-0.3-1,0l-1.7,1.7c0,0,0,0,0,0h-0.8l1.5-1.5c0.3-0.3,0.3-0.7,0-1c-0.3-0.3-0.7-0.3-1,0l-2.5,2.5  c0,0,0,0,0,0h-0.6V61h7.9V64.4z M70.8,66.7H67c-0.4,0-0.7,0.3-0.7,0.7v3.7c0,0.4,0.3,0.7,0.7,0.7h3.8c0.4,0,0.7-0.3,0.7-0.7v-3.7  C71.5,67.1,71.2,66.7,70.8,66.7z M70.1,70.4h-2.4v-2.3h2.4V70.4z M64,66.7h-2.5c-0.4,0-0.7,0.3-0.7,0.7v2.4c0,0.4,0.3,0.7,0.7,0.7  H64c0.4,0,0.7-0.3,0.7-0.7v-2.4C64.7,67.1,64.4,66.7,64,66.7z M63.3,69.2h-1.1v-1h1.1V69.2z M70.8,72.4h-2.5c-0.4,0-0.7,0.3-0.7,0.7  v2.4c0,0.4,0.3,0.7,0.7,0.7h2.5c0.4,0,0.7-0.3,0.7-0.7v-2.4C71.5,72.7,71.2,72.4,70.8,72.4z M70.1,74.8H69v-1h1.1V74.8z M36.1,79.5  H22.3c-1.6,0-3-1.3-3-3v-26c0-1.6,1.3-3,3-3h18.4c1.6,0,3,1.2,3,2.8v1.4c0,0.4,0.3,0.7,0.7,0.7c0.4,0,0.7-0.3,0.7-0.7v-1.4  c0-2.3-2-4.2-4.4-4.2h-2.7V29.6c0-1.2-1-2.2-2.2-2.2h-8.9c-1.2,0-2.2,1-2.2,2.2l0,16.6h-2.3c-2.4,0-4.4,2-4.4,4.4v26  c0,2.2,1.7,4,3.8,4.3c0.1,1.5,1.4,2.7,2.9,2.7c1.5,0,2.8-1.2,2.9-2.7h8.6c0.4,0,0.7-0.3,0.7-0.7C36.9,79.9,36.5,79.5,36.1,79.5z   M34.6,32.7v13.5H28V32.7H34.6z M36.1,46.2V32.7h0.4v13.5H36.1z M26.8,28.8h8.9c0.4,0,0.7,0.4,0.7,0.8v1.6H26.1l0-1.6  C26.1,29.1,26.4,28.8,26.8,28.8z M26.1,32.7h0.4v13.5h-0.4L26.1,32.7z M24.6,82.2c-0.7,0-1.3-0.5-1.4-1.2h2.9  C26,81.7,25.4,82.2,24.6,82.2z M37.9,53.7c0,0.4-0.3,0.7-0.7,0.7H23.6c-0.4,0-0.7-0.3-0.7-0.7c0-0.4,0.3-0.7,0.7-0.7h13.6  C37.6,53,37.9,53.3,37.9,53.7z M23.6,75c-0.4,0-0.7-0.3-0.7-0.7c0-0.4,0.3-0.7,0.7-0.7h12.1c0.4,0,0.7,0.3,0.7,0.7  c0,0.4-0.3,0.7-0.7,0.7H23.6z M44.9,43.3c0-0.4,0.3-0.7,0.7-0.7h4.5c6.8,0,13.2-3,17.5-8.3c0.3-0.3,0.7-0.4,1-0.1  c0.3,0.3,0.4,0.7,0.1,1C64.2,40.8,57.4,44,50.2,44h-4.5C45.3,44,44.9,43.7,44.9,43.3z M78.8,24.4c0.9,2,1.8,3.9,2.7,5.8  c0.4,0.8,0.3,1.6-0.2,2.5c-0.2,0.3-0.4,0.4-0.7,0.5c0,0-0.1,0-0.1,0c-0.2,0-0.5-0.1-0.7-0.3c-0.1-0.1-0.1-0.1-0.2-0.2  c-0.7-0.9-1.4-1.7-2-2.6c-0.6-0.8-1.2-1.5-1.8-2.3c-0.2-0.3-0.2-0.8,0.1-1c0.3-0.2,0.8-0.2,1,0.1c0.6,0.8,1.2,1.6,1.8,2.3  c0.5,0.7,1.1,1.4,1.7,2.2c0-0.2,0-0.4-0.1-0.5c-0.9-1.9-1.8-3.8-2.7-5.8c-0.2-0.4,0-0.8,0.4-1C78.2,23.9,78.7,24.1,78.8,24.4z   M64.9,23.3c-0.2-0.3-0.2-0.7-0.1-1c0.1-0.5,0.6-1.2,2.2-1.2c1.7,0.1,5,0,6.6,0c0.3,0,0.5,0,0.6,0c0.5-0.7,1.9-2.5,2.3-3  c0.8-1.1,2.3-2.2,3.5-1.5c1,0.6,1,1.8,0,3.6c-0.5,0.9-5.8,8.4-7.1,10.2c0,0.1,0.1,0.4,0.2,0.7c0.1,0.4,0.3,1,0.3,1.2  c0.1,0.4,0.3,1.3-0.3,1.9c-0.2,0.2-0.5,0.4-0.9,0.4c-0.2,0-0.5-0.1-0.7-0.2l-2.3-2.1c-0.3-0.3-0.3-0.7,0-1c0.3-0.3,0.7-0.3,1,0  l1.9,1.7c0-0.1,0-0.1,0-0.2c-0.1-0.2-0.2-0.7-0.3-1.2c-0.2-0.6-0.2-0.8-0.2-0.9c0-0.2-0.1-0.6,0.2-0.9c1.7-2.3,6.7-9.4,7.1-10.2  c0.7-1.2,0.6-1.6,0.5-1.7c-0.2-0.1-1,0.3-1.6,1.1c-0.5,0.7-2.6,3.3-2.6,3.3c-0.2,0.2-0.4,0.3-0.7,0.3c0,0-0.4,0-0.9,0  c-1.6,0-5,0-6.6,0c-0.2,0-0.4,0-0.5,0.1c1.3,0.3,4.6,1.2,6.5,1.7c0.4,0.1,0.6,0.5,0.5,0.9c-0.1,0.4-0.5,0.6-0.9,0.5  c-2.2-0.6-6.5-1.7-6.9-1.8C65.4,23.8,65.1,23.6,64.9,23.3z"></path></g><g id="SvgjsG1449" featurekey="nameFeature-0" transform="matrix(1.5097985316508933,0,0,1.5097985316508933,118.79216088670807,13.942809503861074)" fill="#75fcce"><path d="M9.68 17.2 l9.56 0 l0 -3.8 l-17 0 l0 1.24 l15.64 0 l0 1.44 l-17.08 0 l0 -4.12 l19.88 0 l0 6.68 l-9.56 0 l0 18.72 l-1.44 0 l0 -20.16 z M7 18.64 l-6.2 0 l0 -1.44 l7.64 0 l0 21.32 l4 0 l0 -18.64 l1.44 0 l0 20.12 l-6.88 0 l0 -21.36 z M49.965 38.56 l-4.6 0 l-5.52 -10.28 l-3.72 0.04 l0 10.24 l-4.04 0 l0 -26.56 l-1.44 0 l0 28 l6.96 0 l0 -10.28 l1.4 0 l5.48 10.28 l7.88 0 l-5.52 -10.32 l-1.32 0.52 z M40.445 13.440000000000001 c5.8 0 9.08 2.6 9.08 7.36 c0 4.32 -2.6 6.96 -7.12 7.44 l-1.08 0.12 l5 9.24 l1.64 0 l-4.36 -8.12 c4.8 -0.84 7.36 -3.76 7.36 -8.68 c0 -1.64 -0.36 -3.12 -1.04 -4.44 c-1.6 -2.84 -4.88 -4.36 -9.48 -4.36 l-7.08 0 l0 25.56 l1.44 0 l0 -24.12 l5.64 0 z M40.125 27.04 c5.48 0 8.08 -1.88 8.08 -6.04 c0 -3.96 -2.72 -6.2 -7.08 -6.2 l-5.04 0 l0 4.2 l4.6 0 c2.12 0 3.2 0.6 3.2 1.8 c0 1.4 -1.32 2.08 -4 2.08 l-2.32 0 l0 -2.48 l-1.48 0 l0 3.92 l3.8 0 c3.56 0 5.44 -1.24 5.44 -3.52 c0 -0.72 -0.16 -1.28 -0.52 -1.72 c-0.68 -1 -2.04 -1.48 -4.12 -1.48 l-3.12 0 l0 -1.36 l3.56 0 c3.56 0 5.64 1.72 5.64 4.76 c0 3.16 -2.12 4.64 -6.64 4.64 l-4 0 l0 1.4 l4 0 z M63.97 37.52 l1.76 0 l1.4 -3.36 l10.44 0.04 l2.56 5.8 l7.36 -0.04 l-12.6 -27.96 l-2.56 0 l-12.52 27.96 l7.8 0 l1.36 -3.2 l7.96 0 l-0.6 -1.36 l-8.24 0 l-1.28 3.16 l-4.76 0 l11.08 -25.2 l0.96 0 l11.12 25.2 l-4.24 0 l-2.56 -5.72 l-12.4 0 z M68.73 30.48 l4.88 -11.64 l8.2 18.64 l1.64 0 l-9.84 -21.92 l-7.2 16.16 l11.6 0 l-4.4 -9.72 l-3.04 7.32 l1.56 0 l1.48 -3.64 l2.2 4.8 l-7.08 0 z M96.81500000000001 12 l1.44 0 l0 26.56 l3.92 0 l0 -10 l9.36 0 l0 -1.32 l-9.32 0 l0 -1.44 l10.76 0 l0 4.2 l-9.36 0 l0 10 l-6.8 0 l0 -28 z M99.49500000000002 12 l15.44 0 l0 6.8 l-10 0 l0 -1.44 l8.56 0 l0 -3.92 l-12.6 0 l0 24 l-1.4 0 l0 -25.44 z M102.17500000000001 14.600000000000001 l10.08 0 l0 1.44 l-8.64 0 l0 7.08 l9.36 0 l0 1.48 l-10.8 0 l0 -10 z M124.42000000000002 12 l4.2 0 l0 25.32 l-1.44 0 l0 -23.88 l-1.32 0 l0 25.12 l4.04 0 l0 -26.56 l1.44 0 l0 28 l-6.92 0 l0 -28 z M153.34500000000003 19.68 l-1.52 2.36 l-5.64 -8.6 l1.52 0 l4.12 6.4 l0.84 -1.36 l-4.16 -6.48 l-4.96 0 l8.28 12.68 l8.08 -12.68 l-1.72 0 l-4.8 7.6 z M144.38500000000002 38.56 l-1.36 0 l8.08 -12.76 l-8.8 -13.76 l-1.72 0 l8.8 13.8 l-9 14.2 l4.76 -0.04 l16.96 -26.52 l1.44 0 l-9.48 14.88 l5.92 9.28 l1.72 0 l-5.96 -9.28 l10.44 -16.32 l-4.84 0 z M157.22500000000002 28.48 l6.52 10.08 l-4.56 0 l-5.92 -9 l-6.72 10.44 l1.72 0 l5.04 -7.8 l5.08 7.8 l8 0 l-8.16 -12.68 l-0.12 -0.2 z"></path></g></svg>